<?xml version="1.0" encoding="UTF-8" standalone="no"?>
<svg
   xmlns:dc="http://purl.org/dc/elements/1.1/"
   xmlns:cc="http://creativecommons.org/ns#"
   xmlns:rdf="http://www.w3.org/1999/02/22-rdf-syntax-ns#"
   xmlns:svg="http://www.w3.org/2000/svg"
   xmlns="http://www.w3.org/2000/svg"
   xmlns:sodipodi="http://sodipodi.sourceforge.net/DTD/sodipodi-0.dtd"
   xmlns:inkscape="http://www.inkscape.org/namespaces/inkscape"
   inkscape:version="1.0 (4035a4fb49, 2020-05-01)"
   sodipodi:docname="a4u.svg"
   viewBox="0 0 301 233"
   height="233"
   width="301"
   id="svg26"
   version="1.1">
  <metadata
     id="metadata32">
    <rdf:RDF>
      <cc:Work
         rdf:about="">
        <dc:format>image/svg+xml</dc:format>
        <dc:type
           rdf:resource="http://purl.org/dc/dcmitype/StillImage" />
        <dc:title></dc:title>
      </cc:Work>
    </rdf:RDF>
  </metadata>
  <defs
     id="defs30" />
  <sodipodi:namedview
     inkscape:current-layer="g34"
     inkscape:window-maximized="1"
     inkscape:window-y="-8"
     inkscape:window-x="-8"
     inkscape:cy="-39.101693"
     inkscape:cx="25.723114"
     inkscape:zoom="0.41576665"
     showgrid="false"
     id="namedview28"
     inkscape:window-height="715"
     inkscape:window-width="1366"
     inkscape:pageshadow="2"
     inkscape:pageopacity="0"
     guidetolerance="10"
     gridtolerance="10"
     objecttolerance="10"
     borderopacity="1"
     bordercolor="#666666"
     pagecolor="#ffffff" />
  <g
     id="g34"
     inkscape:label="Image"
     inkscape:groupmode="layer">
    <path
       style="fill:#666666;stroke-width:0.999999"
       d="m 226.70843,202.30671 c -10.01574,-5.07356 -15.0085,-11.56086 -20.44081,-26.55935 -0.93468,-2.58058 -2.70274,-6.18058 -3.92882,-8.00001 -5.1617,-7.6594 -7.5137,-2.10153 -7.59307,17.94195 l -0.0567,14.24999 h -7.34173 c -4.03805,0 -13.42639,-0.29178 -20.86299,-0.64845 l -13.52088,-0.64846 -0.5057,-15.84045 c -0.33638,-10.55516 -0.92372,-16.34461 -1.75937,-17.35151 -1.04882,-1.26369 -4.82722,-1.51113 -23.07289,-1.51113 -12,0 -22.00516,0.33751 -22.23306,0.75001 -0.22677,0.4125 0.67917,7.42828 2.01675,15.59062 1.33757,8.16235 2.18759,15.08504 1.88901,15.38374 -0.76574,0.76573 -16.028601,2.02352 -29.499971,2.43103 l -11.39074,0.34469 -2.40038,-10.72641 c -3.1971,-14.28631 -4.70324,-17.77361 -7.6766,-17.77361 -4.32302,0 -7.14179,4.8347 -9.20503,15.78781 -1.78848,9.49527 -3.15024,12.98661 -5.33556,13.68019 -3.91786,1.24346 -17.35711,2.47241 -27.35093,2.50114 l -10.7497405,0.0302 v -3.87318 c 0,-4.64761 7.8485705,-67.51866 11.5007305,-92.12682 5.28983,-35.641854 10.12157,-59.248368 13.03748,-63.698912 1.39276,-2.125644 2.2114,-2.30143 10.73461,-2.305474 5.07478,-0.0024 16.1023,0.532724 24.50533,1.18919 14.12523,1.103509 15.31237,1.349178 15.72623,3.2544 0.24567,1.133443 1.39389,8.810797 2.55005,17.060788 2.71937,19.40451 5.89191,35.512063 11.58879,58.845168 l 4.60157,18.84518 13.946831,-27.34519 c 15.87213,-31.120629 20.15774,-39.095508 23.29323,-43.345171 1.21739,-1.64999 2.51225,-4.611477 2.87773,-6.581027 0.36662,-1.969587 2.44196,-7.256542 4.61443,-11.748737 4.89184,-10.116056 5.83937,-10.593826 24.02268,-12.111685 7.42526,-0.619804 16.31282,-1.39903 19.7503,-1.731628 l 6.24982,-0.604687 0.0378,40.888895 c 0.0378,40.16058 0.51288,47.84538 3.15401,49.51986 2.17248,1.37753 4.56,0.9837 5.34123,-0.88097 0.4029,-0.96249 1.06961,-20.19999 1.48082,-42.750008 0.41159,-22.549985 1.104,-41.855055 1.53865,-42.90017 0.74721,-1.795918 1.70041,-1.865424 17.376,-1.266482 9.12189,0.348472 18.27288,0.925001 20.33537,1.281033 l 3.75004,0.64732 0.0416,52.619149 c 0.0529,63.099788 1.01216,78.394778 4.68964,74.719638 1.02123,-1.02058 0.97512,-53.98504 -0.0831,-95.201087 l -0.84971,-33.100611 19.19509,-0.720793 c 10.55735,-0.396435 19.40787,-0.507931 19.6679,-0.247937 1.84744,1.847319 2.38942,21.429089 2.12939,76.906128 l -0.29103,62.37083 -3.77234,7.63105 c -4.34041,8.77996 -10.32832,14.69613 -17.53323,17.32332 -3.50173,1.2768 -9.01417,1.82233 -21.69449,2.14692 -16.99313,0.43499 -17.0022,0.434 -22.48063,-2.34108 z m 38.76775,-6.46613 c 6.799,-2.33919 12.69204,-6.05926 14.27037,-9.00828 1.08321,-2.02371 0.95395,-2.11313 -2.47446,-1.71288 -4.74331,0.55378 -4.18923,-0.58858 2.43893,-5.02613 3.0017,-2.00969 5.62053,-4.50686 5.81934,-5.54925 0.31748,-1.67241 -0.0907,-1.82551 -3.48964,-1.30212 -2.11843,0.32617 -4.86388,0.89408 -6.10129,1.2619 -3.27118,0.97221 -2.79761,-1.17796 0.51326,-2.33223 7.93096,-2.76465 12.02003,-10.35519 5.95427,-11.05187 -6.23471,-0.71603 -20.71749,6.14113 -20.71749,9.80905 0,4.14195 -9.11848,7.21069 -15.16384,5.10327 -4.28409,-1.49337 -9.82072,-5.28212 -9.82942,-6.72612 0,-0.62336 0.89311,-1.36872 1.99295,-1.65638 2.58671,-0.67639 2.78589,-5.39925 0.24945,-5.92967 -2.30929,-0.4831 -18.01928,1.95088 -21.41292,3.31756 -2.6827,1.08034 -4.48781,5.03947 -3.22771,7.07845 0.66633,1.07819 10.10494,0.63061 17.37789,-0.82401 4.92926,-0.98585 2.93631,1.3381 -2.27943,2.65776 -2.31421,0.5856 -5.89531,1.79116 -7.9578,2.67908 -4.74633,2.04321 -4.99691,5.21738 -0.74797,9.46651 3.67937,3.67922 2.89852,3.81075 28.75805,-4.84536 19.99635,-6.69339 29.20781,-8.18948 17.73997,-2.88117 -3.29991,1.5275 -10.04977,4.24789 -14.99981,6.04528 -15.0395,5.46097 -23.20177,9.4704 -21.487,10.55467 1.99786,1.26308 8.57651,1.20499 13.48687,-0.11905 2.20006,-0.59324 8.37014,-3.06573 13.71175,-5.49445 5.34123,-2.42869 10.17864,-4.41581 10.74973,-4.41581 2.81197,0 0.30992,2.34848 -6.46413,6.06595 -4.12648,2.26473 -8.51376,5.00319 -9.75004,6.08553 l -2.24731,1.96781 4.78828,-0.62664 c 2.63358,-0.3447 7.35799,-1.51076 10.49878,-2.59136 z M 27.436629,189.90774 c 7.93889,-3.96722 14.82671,-10.03015 13.96006,-12.28849 -0.5023,-1.30945 -1.91962,-1.67471 -6.42595,-1.65607 -3.17972,0.0113 -7.47137,0.41623 -9.53689,0.89586 -6.08315,1.4126 -5.28982,-0.61928 0.9498,-2.43323 6.33071,-1.84036 13.3115,-5.30135 17.62658,-8.73917 3.9481,-3.14532 20.38035,-3.90153 25.45021,-1.1712 3.23754,1.74346 3.43483,1.73178 8.5217,-0.50408 10.82343,-4.7574 13.27861,-3.59089 3.95716,1.88032 -3.16233,1.85624 -6.85719,4.04874 -8.21026,4.87226 l -2.46048,1.4973 3.21033,1.52043 c 3.24246,1.53562 4.38879,4.15763 1.81758,4.15763 -2.64151,0 -3.744,8.46304 -1.40712,10.8 3.1321,3.13202 12.3772,-0.57403 19.20151,-7.69735 2.32026,-2.42177 2.83767,-3.82235 2.76435,-7.48301 -0.11339,-5.73585 -2.35313,-11.11438 -5.27546,-12.67835 l -2.27906,-1.21965 2.8388,-2.26348 c 1.8395,-1.46699 2.623,-2.82558 2.22577,-3.86083 -0.91389,-2.3811 -8.70237,-2.04457 -20.86224,0.90138 -10.70287,2.59302 -16.81361,3.16683 -16.81361,1.57882 0,-1.0224 3.27648,-2.17939 13.00007,-4.59057 12.14097,-3.01074 19.99975,-5.56884 19.99975,-6.51024 0,-0.51625 -1.12479,-1.22098 -2.49978,-1.56609 -3.34942,-0.8406 -3.18539,-3.19895 0.24944,-3.59421 3.45638,-0.39769 4.11062,-3.53193 1.42904,-6.84356 l -1.91546,-2.36568 -8.37695,2.24209 c -9.28252,2.4844 -12.8776,4.40089 -13.62633,7.2635 -0.2759,1.05003 -1.45776,2.14628 -2.62979,2.43617 -3.58677,0.88728 -28.63257,0.0189 -28.69153,-0.99526 -0.0378,-0.52048 1.78318,-1.48902 4.02973,-2.15229 7.34589,-2.169 9.03156,-3.85796 9.03156,-9.04944 0,-4.57996 0,-4.59908 -3.00019,-4.00196 -4.09587,0.81914 -3.83811,-0.71697 1.00007,-5.96583 5.69574,-6.1793 5.40812,-7.8093 -1.25745,-7.12135 -11.6829,1.20575 -21.86684,7.61934 -20.23975,12.74608 0.66142,2.08381 1.14709,2.20993 6.60548,1.715 3.24057,-0.29367 5.89153,-0.22073 5.89153,0.1629 0,0.38339 -2.70426,1.93848 -6.00983,3.45577 -9.57543,4.39518 -12.20296,10.84955 -4.66961,11.47155 4.54791,0.37569 4.41525,2.0146 -0.29102,3.56901 -1.85953,0.61432 -3.56372,1.67664 -3.78709,2.36077 -0.46185,1.41362 3.68089,3.25614 7.32133,3.25614 3.9462,0 2.78929,1.67331 -1.98879,2.87644 -4.71723,1.1878 -8.57651,4.95648 -8.57651,8.37506 0,1.57856 0.45808,1.85125 2.25034,1.34033 12.79672,-3.64822 17.74979,-4.43641 17.74979,-2.82467 0,0.42195 -3.5399,2.02485 -7.86595,3.56206 -10.9595,3.89393 -12.34999,5.00179 -11.56082,9.20923 0.48453,2.58384 0.13984,4.01333 -1.46948,6.05666 -2.33462,2.96795 -2.84258,9.26611 -0.90369,11.2049 1.91396,1.91403 5.04567,1.41728 11.54722,-1.83156 z m 54.25285,-16.37922 c 0,-1.36611 7.41656,-5.58921 9.81543,-5.58921 2.75717,0 0.85682,2.98012 -3.13134,4.91078 -5.06154,2.45034 -6.68409,2.61502 -6.68409,0.67843 z M 46.120339,159.8275 c -1.41014,-2.28166 3.71868,-3.74396 6.56882,-1.8729 1.33342,0.8753 1.33342,1.09409 0,1.96939 -2.02242,1.32787 -5.7222,1.27352 -6.56882,-0.0964 z m -10.43112,-9.38819 c 0,-1.15155 1.27786,-1.50002 5.49997,-1.50002 4.22249,0 5.49997,0.34847 5.49997,1.50002 0,1.15151 -1.27748,1.49998 -5.49997,1.49998 -4.22211,0 -5.49997,-0.34847 -5.49997,-1.49998 z m 16.99994,-2.39301 c 0,-0.49119 0.71207,-1.16617 1.58211,-1.50002 3.38948,-1.30069 9.41821,-0.34054 9.41821,1.50002 0,0.49115 -2.47522,0.89299 -5.49997,0.89299 -3.02514,0 -5.50035,-0.40184 -5.50035,-0.89299 z m 16.00025,-3.03961 c 0,-1.38682 3.80032,-2.33435 6.57222,-1.63861 4.00555,1.00531 2.74356,2.57121 -2.07231,2.57121 -2.47483,0 -4.49991,-0.41968 -4.49991,-0.9326 z m -30.15987,45.54935 c 0.30614,-1.60078 -0.0567,-1.77906 -2.40983,-1.18866 -1.52201,0.38204 -3.70431,1.36426 -4.84875,2.18268 -1.95137,1.39502 -1.80057,1.46937 2.40982,1.18866 3.46734,-0.23131 4.57285,-0.72877 4.84876,-2.18268 z m 146.906831,0.13342 c 0.54577,-0.68749 1.28958,-2.90188 1.65317,-4.92083 0.79256,-4.40262 -0.17764,-4.81807 -8.34369,-3.57169 -10.03049,1.53112 -11.59332,0.12812 -2.45745,-2.206 8.93594,-2.28306 14.60296,-9.12499 8.17172,-9.86589 -3.19559,-0.36812 -19.33493,2.51086 -21.96473,3.91816 -4.10494,2.19689 0.29859,10.22094 4.68624,8.53758 0.86438,-0.33147 1.50765,-0.0265 1.50765,0.71369 0,0.71074 -1.65316,1.7091 -3.67407,2.21858 -2.02054,0.50952 -3.84945,1.46226 -4.06337,2.11718 -0.98193,3.0014 22.22891,5.90143 24.48453,3.05922 z m -86.969571,-1.30669 c 2.538331,-1.77789 2.841071,-3.68501 0.84813,-5.33923 -1.07452,-0.89155 -2.07421,-0.48737 -4.57626,1.84985 -4.64504,4.33905 -1.58022,7.20749 3.72813,3.48938 z M 173.44431,167.355 c 9.36794,-1.93497 12.73474,-3.59002 14.43893,-7.09754 0.77593,-1.59772 2.52283,-3.01122 4.30488,-3.48344 3.32409,-0.88085 5.5011,-3.26566 5.5011,-6.0257 0,-2.59291 -3.23943,-2.3252 -13.8599,1.14535 -14.37657,4.69807 -20.48467,8.23204 -22.2618,12.87968 -1.77146,4.63299 0.0416,5.0267 11.87679,2.58165 z m 100.39294,-8.36308 c 5.59295,-1.62103 10.54073,-3.53355 10.99503,-4.25 1.16145,-1.83069 1.06356,-14.557 -0.11717,-15.28679 -1.62708,-1.00581 -19.30507,4.31955 -21.44617,6.46054 -3.56561,3.56549 -0.80806,4.11012 9.17631,1.81247 5.08196,-1.16954 9.56561,-1.80102 9.96322,-1.40326 1.02085,1.02066 -1.23477,2.25365 -8.70614,4.75963 -6.57752,2.20603 -12.01248,6.40388 -12.01248,9.27787 0,2.08951 0.34394,2.05058 12.14778,-1.37046 z m -38.36863,-2.56255 c 4.12082,-1.66659 6.83226,-4.54504 5.51887,-5.85861 -1.18224,-1.18235 -11.8594,-0.63628 -17.83824,0.91238 -6.35452,1.64609 -10.20585,4.44041 -8.94047,6.48748 1.07679,1.7427 15.77424,0.67725 21.25984,-1.54125 z m -96.2793,-4.01945 c 12.19351,-3.22307 45.60718,-20.98047 47.17719,-25.07173 0.84284,-2.19651 -1.37726,-3.36537 -6.42708,-3.38359 -4.79547,-0.0189 -5.65833,-1.44699 -1.5001,-2.48485 8.56479,-2.13762 12.44221,-8.67345 5.54155,-9.34072 -4.42697,-0.42807 -18.63345,3.54848 -21.19182,5.93182 -3.1782,2.96107 -2.50393,7.87846 1.08057,7.87846 3.9001,0 1.37159,3.47459 -4.68019,6.43162 -4.84686,2.36806 -7.67924,3.01622 -14.73486,3.37161 -7.66867,0.38623 -8.81726,0.2245 -9.41216,-1.32575 -0.47622,-1.24067 0.11338,-2.34225 1.98463,-3.70496 5.05701,-3.68383 2.20573,-6.36106 -5.03547,-4.72789 -6.81864,1.53782 -5.68365,-0.65544 1.75295,-3.38766 5.24183,-1.92586 11.49921,-7.89324 12.48567,-11.90699 0.7457,-3.0345 0.41953,-3.17265 -4.29732,-1.8198 -4.69229,1.34566 -4.0116,-0.49569 1.00648,-2.72319 5.66703,-2.51565 11.7498,-9.311131 11.7498,-13.126564 0,-1.602557 -0.5624,-3.124649 -1.24989,-3.382375 -2.28926,-0.858104 2.41625,-3.487256 13.10249,-7.321209 13.45701,-4.828044 16.33134,-6.792303 17.39603,-11.888089 0.45846,-2.193826 0.70261,-5.456012 0.54236,-7.249322 l -0.29102,-3.260561 -19.49972,10.815496 c -24.59339,13.640542 -30.6497,17.526123 -31.50198,20.211288 -0.37418,1.17978 -0.49777,2.328114 -0.27591,2.551862 0.22299,0.223748 3.52592,-0.485178 7.33833,-1.575345 8.19893,-2.344743 8.43742,-2.363943 8.43742,-0.678917 0,0.716826 -3.56561,2.761172 -7.92378,4.54303 -10.0868,4.124259 -16.56416,9.962876 -15.72246,14.172176 0.59074,2.95423 -0.77782,5.35457 -6.65008,11.66203 l -2.96126,3.18055 3.62873,0.68077 c 4.34457,0.81501 4.69871,2.77247 0.7937,4.38992 -3.77688,1.56442 -9.1646,6.56856 -9.1646,8.51188 0,1.90601 2.80365,1.95012 12.77178,0.20107 9.48435,-1.66428 8.87169,-0.0393 -1.0662,2.82678 -10.51843,3.03375 -13.54092,6.03836 -11.53361,11.46456 0.86438,2.33661 0.9857,2.35483 11.6005,1.741 5.90022,-0.34129 13.42753,-1.33402 16.72744,-2.2063 z m 27.99987,0.42081 c 2.20006,-0.60359 9.53726,-3.13036 16.3045,-5.61502 l 12.30426,-4.51756 -0.30615,-3.12941 c -0.25322,-2.59869 -0.7816,-3.18417 -3.11924,-3.45214 -1.54809,-0.17764 -5.36466,0.47943 -8.48164,1.4598 -7.25707,2.28265 -31.2034,14.08536 -31.2034,15.37962 0,1.32272 9.52214,1.24044 14.50016,-0.12548 z m 61.47515,-6.83883 c 5.52491,-1.07104 10.49084,-2.22259 11.03547,-2.55901 1.793,-1.10827 1.04012,-5.3447 -1.23289,-6.9369 -1.2223,-0.85618 -3.92239,-1.55668 -6,-1.55668 -2.0776,0 -3.77763,-0.45003 -3.77763,-1.00003 0,-0.54999 1.09568,-0.99998 2.43477,-0.99998 3.10299,0 7.80019,-1.77234 8.77946,-3.31257 1.18866,-1.8692 0.91125,-5.42555 -0.46412,-5.95102 -1.92341,-0.73478 -13.75711,1.06258 -18.37758,2.79122 -2.27036,0.84934 -4.96403,2.46871 -5.98677,3.59864 -1.81342,2.00398 -1.81191,2.08891 0.068,3.46405 1.06016,0.7753 3.86684,1.40969 6.2366,1.40969 2.37014,0 4.30904,0.44999 4.30904,0.99999 0,0.55 -0.91465,0.99999 -2.03225,0.99999 -4.06111,0 -8.67591,2.70142 -9.3755,5.48806 -0.72265,2.88023 0.70715,5.51195 2.9949,5.51195 0.73814,0 5.86242,-0.87632 11.38771,-1.9474 z m 47.46558,-9.107 c 6.63722,-2.04998 10.176,-4.89604 9.21222,-7.40837 -0.69128,-1.80064 -2.47333,-1.8988 -9.67522,-0.53295 -10.72063,2.03312 -12.92296,2.93012 -13.5753,5.5293 -0.34016,1.35409 -0.34016,3.18713 3.7e-4,4.0735 0.71358,1.85979 3.83282,1.49061 14.03793,-1.66148 z M 76.064409,129.43205 c 3.57467,-0.82901 7.17505,-1.76659 8.00088,-2.08354 1.9166,-0.73542 2.9794,-5.51505 2.10822,-9.48103 -0.65424,-2.9783 -0.80088,-3.05094 -4.82948,-2.38669 -4.77543,0.78746 -18.49247,5.02261 -20.52132,6.33611 -1.10665,0.71619 -1.14331,1.56193 -0.19276,4.43898 1.70872,5.17739 4.40995,5.73321 15.43559,3.17617 z m 74.584811,-4.80178 -0.0416,-3.19098 -1.50426,2.77372 c -0.82733,1.52553 -1.22834,3.22038 -0.89083,3.7663 1.10665,1.79021 2.47597,-0.0934 2.43515,-3.34904 z m 131.40095,-1.46975 c 2.55647,-1.49291 3.13927,-2.47279 3.13927,-5.27727 v -3.44395 l -4.99993,0.0265 c -2.75037,0.0151 -7.47515,0.39723 -10.50029,0.85183 -7.9336,1.19229 -5.29058,-0.7124 4.68473,-3.37568 4.50141,-1.20185 9.00132,-2.8478 9.99987,-3.65772 1.6184,-1.3127 0.69921,-1.42129 -8.47068,-1.00047 -5.90967,0.27099 -10.90922,0.98891 -11.75017,1.68684 -1.00157,0.83145 -1.46381,3.20481 -1.46381,7.52095 0,8.67512 1.31528,9.89553 9.80863,9.10239 3.52743,-0.32957 7.82589,-1.42386 9.55238,-2.4322 z m -52.29695,-2.80395 c 6.54766,-1.48925 9.936,-3.36098 9.936,-5.48871 0,-1.85095 -4.05883,-4.92858 -6.50003,-4.92858 -3.45902,0 -3.12567,-1.36357 0.75024,-3.0695 2.77493,-1.22147 3.25001,-1.94189 3.25001,-4.93047 0,-3.388613 -0.1096,-3.490774 -3.50022,-3.209917 -5.84164,0.484157 -16.53392,4.037627 -18.4199,6.121667 -2.33197,2.57673 -1.44416,3.76645 3.42538,4.58914 4.31396,0.72884 5.48259,2.4991 1.64977,2.4991 -3.61021,0 -7.2858,5.19273 -6.01663,8.5 0.75968,1.9801 6.49096,1.94937 15.42538,-0.0828 z M 72.820439,113.39562 c 4.20094,-1.39899 8.43477,-3.42402 9.40838,-4.50002 1.69436,-1.8723 1.69322,-2.04162 -0.0378,-3.9434 -0.98911,-1.09289 -3.3086,-2.53331 -5.1549,-3.20089 -4.15521,-1.50247 -4.43603,-3.812027 -0.46375,-3.812027 1.59118,0 3.13285,-0.625285 3.42614,-1.389506 0.61304,-1.597606 -2.12787,-14.673865 -3.35017,-15.983471 -0.74873,-0.80228 -13.96762,5.855282 -20.02734,10.086614 -2.34935,1.640542 -2.48731,2.132977 -1.69172,6.03224 1.0938,5.36152 3.21903,6.61686 8.96051,5.29255 5.52302,-1.27404 7.7896,-1.28519 7.7896,-0.0386 0,0.55 -0.61908,0.99999 -1.37574,0.99999 -0.75629,0 -3.90652,1.11934 -6.99969,2.48738 -5.88624,2.60315 -6.83641,4.37945 -4.58948,8.57835 1.39994,2.61597 4.86009,2.46637 14.09613,-0.60941 z m -37.43547,-2.52143 c 11.47654,-3.82349 14.30438,-5.90068 14.30438,-10.50747 0,-2.710826 -0.40063,-3.427425 -1.91622,-3.427425 -3.69676,0 -26.64794,16.859375 -23.08611,16.958365 0.82356,0.0227 5.63754,-1.33765 10.69795,-3.02347 z m 133.804351,4.5e-4 c 12.3394,-3.25001 14.51641,-4.09776 15.56787,-6.06251 0.76006,-1.41959 0.89008,-5.704331 0.40781,-13.422844 l -0.70828,-11.337638 -9.52857,3.405619 c -9.76781,3.491112 -14.23899,6.497575 -14.23899,9.574564 0,3.045808 1.15653,4.907452 3.04819,4.907452 2.9159,0 3.30935,1.913612 0.60472,2.941907 -4.13631,1.57266 -4.85367,11.06585 -0.83527,11.05251 0.92522,-0.003 3.48245,-0.47966 5.68252,-1.05906 z m -0.50004,-12.825033 c 0,-1.84199 6.22526,-5.102513 9.75005,-5.106557 4.34003,-0.0038 4.11288,1.606185 -0.50003,3.547691 -5.39376,2.270211 -9.25002,2.920025 -9.25002,1.558866 z M 41.508559,95.112347 c 7.52429,-4.854803 16.94967,-10.759824 20.94463,-13.122255 10.10759,-5.976756 12.23774,-8.741934 12.23055,-15.877531 0,-7.546961 -1.57417,-12.905084 -3.99836,-13.674558 -4.64315,-1.473675 -17.08195,6.905273 -32.54627,21.923604 -15.15892,14.722091 -12.85681,15.223672 11.83144,2.577675 9.66387,-4.949971 18.09146,-9 18.72794,-9 4.1605,0 -3.70356,5.249915 -26.35163,17.591585 -12,6.539301 -16.65751,10.857335 -16.65751,15.443223 0,1.63087 0.48113,2.96519 1.06923,2.96519 0.58809,0 7.22532,-3.972092 14.74998,-8.826933 z m 241.821361,5.614793 c 1.073,-1.073048 1.73518,-4.260701 2.10028,-10.115114 l 0.53329,-8.548347 -5.88699,1.849512 c -12.21506,3.837468 -17.71465,7.126753 -19.4211,11.615698 -2.08517,5.484091 1.58248,7.509691 12.82091,7.081101 5.85751,-0.22337 8.7462,-0.77541 9.85361,-1.88285 z m -54.8281,-5.225728 c 6.2589,-1.666016 10.52107,-4.213115 9.58488,-5.72795 -1.5273,-2.471735 -20.47105,2.139969 -23.42853,5.70361 -1.03673,1.249134 -0.50381,1.460485 3.65858,1.450356 2.68006,-0.0076 7.26312,-0.648227 10.18507,-1.426016 z m -2.93102,-8.923276 c 9.52289,-2.576731 14.12863,-5.716573 12.05367,-8.216995 -0.94413,-1.137487 -2.34331,-1.381607 -5.35635,-0.934413 -13.38028,1.985764 -19.57871,4.537928 -19.57871,8.061506 0,4.169764 1.1418,4.266368 12.88139,1.089902 z m 48.61871,-4.745424 c 3.2999,-1.0817 7.12478,-2.631949 8.49978,-3.445039 2.43212,-1.438224 2.39168,-1.46143 -1.5001,-0.85595 -5.27697,0.821065 -17.51395,5.006741 -18.90293,6.465941 -1.40712,1.477984 3.52706,0.580573 11.90325,-2.164952 z M 153.78245,72.34727 c 20.1498,-10.306885 31.90677,-19.080152 31.90677,-23.809172 0,-2.17372 -0.44976,-2.595213 -2.74998,-2.576844 -4.37292,0.03402 -10.00025,3.097738 -20.99944,11.428913 -6.29291,4.766627 -10.82872,7.541216 -11.74979,7.187679 -0.82658,-0.317102 -1.50539,-0.02646 -1.51143,0.642822 0,0.670262 -1.80095,3.468624 -3.9893,6.218608 -6.64629,8.352265 -5.65417,8.451326 9.09317,0.907994 z m 129.98362,-0.977537 c 1.05789,-0.957203 1.92341,-3.020674 1.92341,-4.585436 0,-2.364586 -0.42029,-2.845002 -2.48882,-2.845002 -4.79509,0 -17.99509,4.132309 -19.76126,6.186368 -2.0281,2.358312 -2.31988,6.456983 -0.50344,7.062539 2.09311,0.697663 18.78085,-3.963666 20.83011,-5.818469 z M 38.785039,68.810426 c 8.5988,-7.117682 19.90412,-17.961978 19.90412,-19.092246 0,-1.348573 -4.96516,-0.846652 -8.29946,0.839017 -5.46218,2.761285 -13.35307,9.273184 -16.17978,13.352315 -2.67629,3.861808 -4.99578,11.029796 -3.56939,11.029796 0.40743,0 4.07244,-2.757997 8.14451,-6.128882 z m 190.200941,4.998198 c 3.09619,-0.621883 6.38702,-1.967509 7.31263,-2.990286 1.67244,-1.847887 3.70091,-15.879043 2.29568,-15.879043 -2.2817,0 -22.4383,15.259276 -23.99244,18.1632 -0.89121,1.665487 -0.52875,1.836813 3.88536,1.836813 2.67779,0 7.4022,-0.5088 10.49877,-1.130684 z m -3.79654,-14.918211 c 9.8264,-7.268145 13.22306,-10.559925 12.07975,-11.707238 -0.40743,-0.409134 -5.87981,-0.895105 -12.16063,-1.079924 l -11.41909,-0.336 v 10.645077 c 0,8.252107 0.27969,10.475339 1.24989,9.890003 0.6875,-0.415257 5.30004,-3.750614 10.25008,-7.411842 z m 50.68649,1.922608 c 8.03377,-2.620573 9.81355,-4.221695 9.81355,-8.828712 0,-5.417537 -1.20719,-6.045014 -11.62886,-6.045014 -11.39867,0 -12.37115,0.706847 -12.37115,8.989644 0,8.263975 0.56164,9.315137 4.57626,8.561991 1.81341,-0.340158 6.13795,-1.54526 9.6102,-2.677909 z M 165.38371,47.300303 c -0.13606,-0.13493 -2.70917,0.291779 -5.71994,0.948472 -5.05209,1.101959 -5.64812,1.538003 -7.7246,5.654173 -1.23741,2.453065 -2.24995,5.591736 -2.24995,6.974778 0,2.233777 0.89046,1.629695 7.97027,-5.408579 4.3835,-4.357796 7.85915,-8.033764 7.72422,-8.168844 z m -126.644781,6.11331 c 3.09241,-1.599005 4.02444,-4.474318 1.45058,-4.474318 -1.68718,0 -5.50035,3.46628 -5.50035,5.000012 0,1.342791 0.5828,1.267163 4.04977,-0.525694 z"
       id="path24" />
  </g>
</svg>
