<?xml version="1.0" encoding="UTF-8" standalone="no"?>
<svg
   xmlns:dc="http://purl.org/dc/elements/1.1/"
   xmlns:cc="http://creativecommons.org/ns#"
   xmlns:rdf="http://www.w3.org/1999/02/22-rdf-syntax-ns#"
   xmlns:svg="http://www.w3.org/2000/svg"
   xmlns="http://www.w3.org/2000/svg"
   xmlns:sodipodi="http://sodipodi.sourceforge.net/DTD/sodipodi-0.dtd"
   xmlns:inkscape="http://www.inkscape.org/namespaces/inkscape"
   version="1.1"
   id="svg26"
   width="301"
   height="233"
   viewBox="0 0 301 233"
   sodipodi:docname="zcc.svg"
   inkscape:version="1.0 (4035a4fb49, 2020-05-01)">
  <metadata
     id="metadata32">
    <rdf:RDF>
      <cc:Work
         rdf:about="">
        <dc:format>image/svg+xml</dc:format>
        <dc:type
           rdf:resource="http://purl.org/dc/dcmitype/StillImage" />
        <dc:title></dc:title>
      </cc:Work>
    </rdf:RDF>
  </metadata>
  <defs
     id="defs30" />
  <sodipodi:namedview
     inkscape:document-rotation="0"
     pagecolor="#ffffff"
     bordercolor="#666666"
     borderopacity="1"
     objecttolerance="10"
     gridtolerance="10"
     guidetolerance="10"
     inkscape:pageopacity="0"
     inkscape:pageshadow="2"
     inkscape:window-width="1366"
     inkscape:window-height="715"
     id="namedview28"
     showgrid="false"
     inkscape:zoom="0.41576665"
     inkscape:cx="25.723114"
     inkscape:cy="-39.101693"
     inkscape:window-x="-8"
     inkscape:window-y="-8"
     inkscape:window-maximized="1"
     inkscape:current-layer="g34" />
  <g
     inkscape:groupmode="layer"
     inkscape:label="Image"
     id="g34">
    <path
       style="fill:#666666;stroke-width:0.333635"
       d="m 156.45103,184.58585 c -11.54854,-0.95077 -22.36809,-5.22174 -31.71274,-12.51867 -1.50131,-1.17222 -3.19179,-2.71491 -3.75662,-3.42812 l -1.02696,-1.29655 12.0225,-9.87148 12.0225,-9.8715 1.53887,1.1746 c 2.05376,1.56766 5.39875,3.22371 8.44168,4.17916 2.16113,0.67866 3.16713,0.78131 7.65924,0.78131 4.48058,0 5.50561,-0.1034 7.67363,-0.77867 5.21891,-1.62388 9.61967,-4.37675 13.62914,-8.52577 1.44205,-1.49213 2.61039,-2.44315 2.83591,-2.30848 0.48204,0.28801 14.74227,11.83725 19.98605,16.18651 l 3.92163,3.25259 -2.63138,2.9265 c -6.13221,6.81978 -14.13337,12.44339 -22.62882,15.90454 -8.88806,3.6213 -18.12007,5.00536 -27.97463,4.19403 z m 99.94101,-0.0126 c -9.20011,-0.76428 -19.03966,-4.10362 -26.52291,-9.00116 -2.9322,-1.91909 -8.13577,-6.02436 -9.62321,-7.59214 l -0.94755,-0.99883 3.78347,-3.13784 c 2.08088,-1.72578 7.48656,-6.17264 12.01259,-9.88183 l 8.22914,-6.74401 2.45466,1.76122 c 4.59251,3.29496 8.37332,4.55644 14.47256,4.8287 8.73631,0.39014 15.84101,-2.51567 22.37115,-9.14945 1.49803,-1.52189 2.8016,-2.76699 2.89683,-2.76699 0.25209,0 24.07132,19.35537 24.17863,19.6474 0.17576,0.47842 -6.36536,7.0788 -9.56852,9.65538 -9.85965,7.93083 -20.71001,12.30103 -33.22732,13.3832 -4.43156,0.3831 -5.85956,0.38259 -10.50952,0 z m -255.64832936,-3.56013 -2.25204004,-0.11728 0.0014,-2.5704 c 0.0014,-2.16598 0.119523,-2.71577 0.75067704,-3.49355 0.798333,-0.98395 61.05770336,-50.6032 61.25201336,-50.43662 0.0632,0.0542 -3.27732,6.1802 -7.42339,13.61334 -4.1461,7.43325 -7.53834,13.59972 -7.53834,13.70312 0,0.1034 10.13576,0.18827 22.52392,0.18827 h 22.52389 l -0.0869,14.59653 -0.087,14.59665 -43.70627,0.0189 c -24.038444,0.0126 -44.7196814,-0.034 -45.95830436,-0.0983 z M 109.35479,153.48484 c -0.7051,-0.92115 -3.05794,-5.55703 -3.90263,-7.6896 -1.09015,-2.75236 -2.66881,-8.77848 -3.25155,-12.412 -0.55211,-3.4425 -0.55296,-14.23236 -10e-4,-17.68267 2.58234,-16.154241 11.64911,-30.854681 24.90894,-40.386339 3.78245,-2.718932 11.66865,-6.708696 16.02616,-8.107884 19.46111,-6.248666 40.55243,-2.243792 57.05414,10.833512 1.552,1.22983 2.82182,2.33534 2.82182,2.45639 0,0.22043 -22.58353,20.099981 -23.05374,20.293411 -0.13733,0.0567 -1.42472,-0.57917 -2.86089,-1.412551 -3.12763,-1.81481 -7.0793,-3.29471 -10.32964,-3.86819 -3.44263,-0.60755 -9.97643,-0.27024 -12.96701,0.66931 -10.13508,3.18412 -17.88656,11.952521 -20.03831,22.667361 -0.672,3.34639 -0.50813,10.10364 0.3158,13.0208 0.28264,1.00072 0.48188,1.84281 0.44277,1.8713 -0.0392,0.029 -5.58168,4.57712 -12.31679,10.10806 -6.73518,5.5308 -12.30937,10.05611 -12.38713,10.05611 -0.0778,0 -0.28506,-0.18764 -0.46066,-0.41702 z m 98.06367,-3.50503 c -4.30605,-9.08023 -6.0263,-17.61432 -5.63199,-27.94015 0.35079,-9.1859 2.27902,-16.44766 6.60005,-24.855911 6.25111,-12.16396 15.46214,-21.138271 27.72482,-27.01232 21.1396,-10.126141 45.74608,-7.001493 64.73766,8.22062 1.23862,0.99277 2.25204,1.93725 2.25204,2.09865 0,0.16154 -4.76683,4.45658 -10.59295,9.54439 -5.8261,5.08796 -11.01087,9.63659 -11.52169,10.107941 -0.84271,0.77777 -0.99726,0.81346 -1.66817,0.38524 -1.76229,-1.124941 -6.63389,-3.338341 -9.24712,-4.201351 -2.59926,-0.85836 -3.26747,-0.93818 -8.00725,-0.95735 -5.83687,-0.024 -7.80348,0.35939 -11.98128,2.3327 -3.25937,1.53941 -6.15211,3.635661 -8.46595,6.134941 -2.53309,2.7361 -3.70459,4.49818 -5.40745,8.13386 -2.22896,4.75896 -2.66333,6.86771 -2.65812,12.90443 0.002,2.84427 0.12712,5.8642 0.27703,6.71096 l 0.27256,1.53952 -12.1254,9.94124 c -6.66896,5.46775 -12.28995,10.06644 -12.49109,10.2194 -0.24259,0.18448 -0.9379,-0.92859 -2.0657,-3.30681 z M 22.71989,132.54916 c 2.510747,-4.47573 3.95364,-7.20338 4.00872,-7.57814 0.03271,-0.22281 3.526716,-6.62773 7.76442,-14.23324 4.237701,-7.60551 7.704911,-13.916621 7.704911,-14.024811 0,-0.10838 -10.734729,-0.19646 -23.854948,-0.19646 H -5.5119574 V 82.002199 67.487877 l 47.4596684,0.08448 47.45968,0.08448 0.0978,2.410873 0.0978,2.410757 -3.23357,5.763202 -3.23358,5.76332 -29.665,24.355441 c -16.31575,13.39544 -30.140988,24.73069 -30.722743,25.18943 l -1.057738,0.83415 z"
       id="path24-3" />
  </g>
</svg>
